<svg preserveAspectRatio="xMidYMid meet" data-bbox="-0.001 0 41.056 60.046" viewBox="-0.001 0 41.056 60.046" height="226.944" width="155.171" xmlns="http://www.w3.org/2000/svg" data-type="color" role="presentation" aria-hidden="true"><defs><style>#comp-jm91y0ng svg [data-color="1"] {fill: #FF9900;}</style></defs>
    <g>
        <path d="M40.519 10.408a1.888 1.888 0 0 1-1.31.516 1.89 1.89 0 0 1-1.309-.516c-4.645-4.434-10.807-6.87-17.369-6.87-6.554 0-12.723 2.443-17.369 6.87a1.911 1.911 0 0 1-2.619 0 1.708 1.708 0 0 1 0-2.5C5.884 2.811 12.978 0 20.523 0c7.546 0 14.64 2.81 19.981 7.909a1.71 1.71 0 0 1 .015 2.5zm-19.988-5.36c-6.132 0-11.902 2.282-16.245 6.426a1.708 1.708 0 0 0 0 2.5c.363.346.836.515 1.31.515.473 0 .947-.17 1.31-.515 3.646-3.481 8.484-5.395 13.632-5.395 5.15 0 9.987 1.914 13.634 5.395a1.911 1.911 0 0 0 2.619 0 1.708 1.708 0 0 0 0-2.5c-4.35-4.144-10.12-6.425-16.26-6.425zm11.207 13.007c.474 0 .947-.17 1.31-.515a1.708 1.708 0 0 0 0-2.5c-6.902-6.588-18.124-6.588-25.026 0a1.708 1.708 0 0 0 0 2.5 1.911 1.911 0 0 0 2.619 0c5.459-5.211 14.336-5.211 19.795 0 .355.346.829.515 1.302.515zm-19.98.55a1.708 1.708 0 0 0 0 2.5c.362.346.836.516 1.31.516.473 0 .946-.17 1.308-.516 3.396-3.24 8.93-3.24 12.325 0a1.911 1.911 0 0 0 2.618 0 1.708 1.708 0 0 0 0-2.5c-4.845-4.617-12.723-4.617-17.561 0zm13.818 13.19c-1.346 1.285-3.136 1.992-5.045 1.992-1.908 0-3.699-.707-5.045-1.992-2.781-2.654-2.781-6.976 0-9.624 1.346-1.285 3.137-1.99 5.045-1.99 1.901 0 3.699.705 5.045 1.99 2.782 2.655 2.782 6.977 0 9.624zm-2.619-7.124a3.485 3.485 0 0 0-2.426-.96c-.917 0-1.783.339-2.426.96a3.173 3.173 0 0 0 0 4.632c.65.621 1.509.96 2.426.96.917 0 1.775-.339 2.426-.96a3.173 3.173 0 0 0 0-4.632zM12.682 54.524L9.294 43.651h-2.87v16.176h2.552V49.469l3.514 10.358h2.745V43.651h-2.553zm4.838 5.31h2.552v-6.863h3.448v-2.45h-3.448v-4.413h4.72v-2.45H17.52zm13.086-16.346c-1.117 0-2.07.374-2.862 1.13-.792.755-1.191 1.666-1.191 2.74v8.826c0 1.066.392 1.977 1.183 2.732.792.756 1.746 1.13 2.87 1.13 1.11 0 2.057-.374 2.848-1.123.792-.748 1.191-1.659 1.191-2.732v-2.26h-2.648v2.231c0 .389-.14.714-.429.989-.289.268-.636.41-1.043.41a1.44 1.44 0 0 1-1.036-.41 1.308 1.308 0 0 1-.429-.989v-8.847c0-.388.14-.72.43-.995.288-.276.628-.41 1.035-.41.407 0 .754.141 1.043.41.288.275.429.607.429.995v1.9h2.648v-1.843c0-1.067-.392-1.977-1.176-2.733-.784-.777-1.738-1.15-2.863-1.15z" fill="#58595b" data-color="1"></path>
    </g>
</svg>
