<svg preserveAspectRatio="xMidYMid meet" data-bbox="0.4 0.4 49.565 40.396" viewBox="0 0 50.365 41.196" height="155.701" width="190.354" xmlns="http://www.w3.org/2000/svg" data-type="ugc" role="presentation" aria-hidden="true">
    <g>
        <path d="M23.139 37.327a1.78 1.78 0 0 1-1.778-1.779 1.78 1.78 0 0 1 1.778-1.778 1.78 1.78 0 0 1 1.779 1.778 1.78 1.78 0 0 1-1.779 1.779m0-4.087a2.31 2.31 0 0 0-2.308 2.308 2.31 2.31 0 0 0 2.308 2.308 2.31 2.31 0 0 0 2.308-2.308 2.31 2.31 0 0 0-2.308-2.308m13.975-15.125a1.858 1.858 0 0 1 1.856 1.856 1.855 1.855 0 0 1-.831 1.547.264.264 0 0 0-.115.263l.502 3.048h-2.825l.503-3.048a.265.265 0 0 0-.115-.263 1.853 1.853 0 0 1-.831-1.547 1.858 1.858 0 0 1 1.856-1.856m-1.459 3.742l-.527 3.194a.265.265 0 0 0 .262.308h3.448a.264.264 0 0 0 .26-.308l-.525-3.194a2.382 2.382 0 0 0 .927-1.886 2.388 2.388 0 0 0-2.386-2.386 2.388 2.388 0 0 0-2.385 2.386c0 .742.343 1.435.926 1.886M6.794 37.327a1.78 1.78 0 0 1-1.779-1.779 1.78 1.78 0 0 1 1.779-1.778 1.78 1.78 0 0 1 1.778 1.778 1.78 1.78 0 0 1-1.778 1.779m0-4.087a2.31 2.31 0 0 0-2.308 2.308 2.31 2.31 0 0 0 2.308 2.308 2.31 2.31 0 0 0 2.308-2.308 2.31 2.31 0 0 0-2.308-2.308m8.172-5.88a1.78 1.78 0 0 1-1.778-1.778 1.78 1.78 0 0 1 1.778-1.779 1.78 1.78 0 0 1 1.779 1.779 1.78 1.78 0 0 1-1.779 1.778m0-4.086a2.31 2.31 0 0 0-2.307 2.308 2.31 2.31 0 0 0 2.307 2.307 2.31 2.31 0 0 0 2.308-2.307 2.31 2.31 0 0 0-2.308-2.308m0 14.053a1.78 1.78 0 0 1-1.778-1.779 1.78 1.78 0 0 1 1.778-1.778 1.78 1.78 0 0 1 1.779 1.778 1.78 1.78 0 0 1-1.779 1.779m0-4.087a2.31 2.31 0 0 0-2.307 2.308 2.31 2.31 0 0 0 2.307 2.308 2.31 2.31 0 0 0 2.308-2.308 2.31 2.31 0 0 0-2.308-2.308m8.173-5.88a1.78 1.78 0 0 1-1.778-1.778 1.78 1.78 0 0 1 1.778-1.779 1.78 1.78 0 0 1 1.779 1.779 1.78 1.78 0 0 1-1.779 1.778m0-4.086a2.31 2.31 0 0 0-2.308 2.308 2.31 2.31 0 0 0 2.308 2.307 2.31 2.31 0 0 0 2.308-2.307 2.31 2.31 0 0 0-2.308-2.308m0-15.847a1.78 1.78 0 0 1-1.778-1.779 1.78 1.78 0 0 1 1.778-1.778 1.78 1.78 0 0 1 1.779 1.778 1.78 1.78 0 0 1-1.779 1.779m0-4.086a2.31 2.31 0 0 0-2.308 2.307 2.31 2.31 0 0 0 2.308 2.308 2.31 2.31 0 0 0 2.308-2.308 2.31 2.31 0 0 0-2.308-2.307m24.02 7.026h-3.867c-.617-2.845-3.151-4.984-6.178-4.984-3.028 0-5.561 2.14-6.179 4.984H3.205A2.278 2.278 0 0 1 .928 8.091V3.205A2.278 2.278 0 0 1 3.204.929H47.16a2.279 2.279 0 0 1 2.276 2.276V8.09a2.278 2.278 0 0 1-2.276 2.276m2.276 2.805v4.887a2.278 2.278 0 0 1-2.276 2.275h-1.14v-3.228c0-1.379-.79-2.17-2.17-2.17h-.412V11.71a6.3 6.3 0 0 0-.059-.813h3.78a2.279 2.279 0 0 1 2.276 2.276m0 9.966v4.887A2.279 2.279 0 0 1 47.16 30.3H3.204A2.278 2.278 0 0 1 .93 28.025v-4.887a2.278 2.278 0 0 1 2.275-2.275h25.003v4.94c0 1.379.79 2.17 2.17 2.17H43.85c1.38 0 2.17-.791 2.17-2.17v-4.94h1.139a2.278 2.278 0 0 1 2.276 2.275m0 9.967v4.887a2.279 2.279 0 0 1-2.276 2.275H3.204A2.278 2.278 0 0 1 .93 37.992v-4.887a2.278 2.278 0 0 1 2.275-2.276H47.16a2.279 2.279 0 0 1 2.276 2.276m-5.585-17.64c1.09 0 1.64.553 1.64 1.641v8.697c0 1.088-.55 1.64-1.64 1.64H30.376c-1.088 0-1.64-.552-1.64-1.64v-8.697c0-1.088.552-1.64 1.64-1.64zm-2.985-3.756v3.227h-7.505V11.71a3.757 3.757 0 0 1 3.753-3.753 3.757 3.757 0 0 1 3.752 3.753m-3.752-4.282a4.287 4.287 0 0 0-4.282 4.282v3.227h-1.514V11.71c0-3.196 2.6-5.796 5.796-5.796s5.795 2.6 5.795 5.796v3.227h-1.514V11.71a4.287 4.287 0 0 0-4.281-4.282M.929 18.059v-4.887a2.278 2.278 0 0 1 2.275-2.276h27.643a6.3 6.3 0 0 0-.058.813v3.227h-.413c-1.379 0-2.17.791-2.17 2.17v3.228H3.205A2.278 2.278 0 0 1 .93 18.059M49.965 8.09V3.205A2.808 2.808 0 0 0 47.16.4H3.204A2.808 2.808 0 0 0 .4 3.205V8.09c0 1.128.672 2.095 1.633 2.54A2.802 2.802 0 0 0 .4 13.172v4.888c0 1.126.672 2.094 1.633 2.54A2.802 2.802 0 0 0 .4 23.137v4.887c0 1.127.672 2.094 1.633 2.54A2.803 2.803 0 0 0 .4 33.105v4.887a2.808 2.808 0 0 0 2.804 2.804H47.16a2.808 2.808 0 0 0 2.805-2.804v-4.887a2.803 2.803 0 0 0-1.634-2.54 2.803 2.803 0 0 0 1.634-2.54v-4.887a2.803 2.803 0 0 0-1.634-2.54 2.803 2.803 0 0 0 1.634-2.54v-4.886a2.803 2.803 0 0 0-1.634-2.54 2.803 2.803 0 0 0 1.634-2.54M6.794 7.426a1.78 1.78 0 0 1-1.779-1.779A1.78 1.78 0 0 1 6.794 3.87a1.78 1.78 0 0 1 1.778 1.778 1.78 1.78 0 0 1-1.778 1.779m0-4.086a2.31 2.31 0 0 0-2.308 2.307 2.31 2.31 0 0 0 2.308 2.308 2.31 2.31 0 0 0 2.308-2.308 2.31 2.31 0 0 0-2.308-2.307m8.172 4.086a1.78 1.78 0 0 1-1.778-1.779 1.78 1.78 0 0 1 1.778-1.778 1.78 1.78 0 0 1 1.779 1.778 1.78 1.78 0 0 1-1.779 1.779m0-4.086a2.31 2.31 0 0 0-2.307 2.307 2.31 2.31 0 0 0 2.307 2.308 2.31 2.31 0 0 0 2.308-2.308 2.31 2.31 0 0 0-2.308-2.307M6.794 27.36a1.78 1.78 0 0 1-1.779-1.78 1.78 1.78 0 0 1 1.779-1.778 1.78 1.78 0 0 1 1.778 1.779 1.78 1.78 0 0 1-1.778 1.778m0-4.086a2.31 2.31 0 0 0-2.308 2.308 2.31 2.31 0 0 0 2.308 2.307 2.31 2.31 0 0 0 2.308-2.307 2.31 2.31 0 0 0-2.308-2.308m8.172-9.438a1.78 1.78 0 0 1 1.779 1.78 1.78 1.78 0 0 1-1.779 1.778 1.78 1.78 0 0 1-1.778-1.779 1.78 1.78 0 0 1 1.778-1.779m0 4.087a2.31 2.31 0 0 0 2.308-2.308 2.31 2.31 0 0 0-2.308-2.308 2.31 2.31 0 0 0-2.307 2.308 2.31 2.31 0 0 0 2.307 2.308m-8.172-4.087a1.78 1.78 0 0 1 1.778 1.78 1.78 1.78 0 0 1-1.778 1.778 1.78 1.78 0 0 1-1.779-1.779 1.78 1.78 0 0 1 1.779-1.779m0 4.087a2.31 2.31 0 0 0 2.308-2.308 2.31 2.31 0 0 0-2.308-2.308 2.31 2.31 0 0 0-2.308 2.308 2.31 2.31 0 0 0 2.308 2.308m16.345-4.087a1.78 1.78 0 0 1 1.779 1.78 1.78 1.78 0 0 1-1.779 1.778 1.78 1.78 0 0 1-1.778-1.779 1.78 1.78 0 0 1 1.778-1.779m0 4.087a2.31 2.31 0 0 0 2.308-2.308 2.31 2.31 0 0 0-2.308-2.308 2.31 2.31 0 0 0-2.308 2.308 2.31 2.31 0 0 0 2.308 2.308" fill="none" stroke-width=".8" stroke="#f98f00"></path>
    </g>
</svg>
